<svg viewBox="0 0 13.3 12.8" fill="none" xmlns="http://www.w3.org/2000/svg">
  <path
    d="M6.65 11.65C9.96371 11.65 12.65 9.18757 12.65 6.15C12.65 3.11243 9.96371 0.65 6.65 0.65C3.33629 0.65 0.65 3.11243 0.65 6.15C0.65 7.43876 1.13355 8.62398 1.94341 9.56155C2.3495 10.0317 2.67689 10.6292 2.4573 11.2103C2.33543 11.5328 2.15953 11.8288 1.94053 12.0873C2.04453 12.1059 2.15 12.1205 2.25645 12.1309C2.38584 12.1435 2.51719 12.15 2.65 12.15C3.50467 12.15 4.29677 11.8819 4.94678 11.4252C5.48671 11.5715 6.05835 11.65 6.65 11.65Z"
    stroke="currentColor"
    stroke-width="1.3"
    stroke-linecap="round"
    stroke-linejoin="round"
  />
</svg>
