<svg viewBox="0 0 12.8 12" fill="none" xmlns="http://www.w3.org/2000/svg">
  <path
    fill-rule="evenodd"
    clip-rule="evenodd"
    d="M0 5.6C0 2.42672 2.95204 0 6.4 0C9.84796 0 12.8 2.42672 12.8 5.6C12.8 8.77328 9.84796 11.2 6.4 11.2C5.98927 11.2 5.58705 11.1661 5.19694 11.1013C4.40942 11.6667 3.44296 12 2.4 12C2.28189 12 2.16468 11.9957 2.04852 11.9873C1.8391 11.9721 1.65286 11.8486 1.55744 11.6615C1.46202 11.4745 1.47132 11.2512 1.58194 11.0727C1.83581 10.6632 1.98697 10.1835 1.99919 9.66787C0.782794 8.66023 0 7.21954 0 5.6Z"
    fill="currentColor"
  />
</svg>
