<svg viewBox="0 0 13 13" fill="none" xmlns="http://www.w3.org/2000/svg">
  <path
    fill-rule="evenodd"
    clip-rule="evenodd"
    d="M6.38535 0C5.7743 0 5.25281 0.441766 5.15236 1.0445L5.09133 1.41068C5.06011 1.59797 4.92471 1.74938 4.7469 1.81596C4.63874 1.85646 4.53235 1.9006 4.4279 1.94823C4.25506 2.02704 4.05215 2.01575 3.89757 1.90534L3.59533 1.68945C3.0981 1.33429 2.41697 1.39066 1.9849 1.82274L1.82275 1.98488C1.39067 2.41696 1.3343 3.09808 1.68947 3.59531L1.90535 3.89755C2.01576 4.05213 2.02705 4.25504 1.94824 4.42788C1.90061 4.53234 1.85647 4.63873 1.81597 4.74689C1.74939 4.92471 1.59797 5.0601 1.41068 5.09132L1.0445 5.15235C0.441767 5.2528 0 5.77429 0 6.38534V6.61465C0 7.2257 0.441766 7.74719 1.0445 7.84764L1.41068 7.90867C1.59797 7.93989 1.74938 8.07529 1.81596 8.2531C1.85646 8.36126 1.9006 8.46764 1.94823 8.5721C2.02704 8.74494 2.01575 8.94785 1.90534 9.10243L1.68944 9.40469C1.33427 9.90192 1.39064 10.583 1.82272 11.0151L1.98487 11.1773C2.41694 11.6093 3.09807 11.6657 3.5953 11.3105L3.89755 11.0947C4.05213 10.9842 4.25504 10.973 4.42788 11.0518C4.53234 11.0994 4.63873 11.1435 4.74689 11.184C4.9247 11.2506 5.0601 11.402 5.09132 11.5893L5.15235 11.9555C5.2528 12.5582 5.77429 13 6.38534 13H6.61465C7.2257 13 7.74719 12.5582 7.84764 11.9555L7.90867 11.5893C7.93989 11.402 8.07529 11.2506 8.2531 11.184C8.36126 11.1435 8.46765 11.0994 8.5721 11.0518C8.74494 10.973 8.94785 10.9842 9.10243 11.0947L9.40467 11.3105C9.9019 11.6657 10.583 11.6093 11.0151 11.1773L11.1772 11.0151C11.6093 10.583 11.6657 9.90192 11.3105 9.40469L11.0946 9.10245C10.9842 8.94787 10.973 8.74496 11.0518 8.57212C11.0994 8.46766 11.1435 8.36127 11.184 8.25311C11.2506 8.0753 11.402 7.9399 11.5893 7.90868L11.9555 7.84765C12.5582 7.7472 13 7.22571 13 6.61466V6.38535C13 5.7743 12.5582 5.25281 11.9555 5.15236L11.5893 5.09133C11.402 5.06011 11.2506 4.92471 11.184 4.7469C11.1435 4.63874 11.0994 4.53236 11.0518 4.4279C10.973 4.25506 10.9843 4.05215 11.0947 3.89757L11.3106 3.59531C11.6657 3.09808 11.6094 2.41696 11.1773 1.98488L11.0151 1.82273C10.5831 1.39066 9.90193 1.33429 9.4047 1.68945L9.10245 1.90535C8.94787 2.01576 8.74496 2.02705 8.57212 1.94824C8.46766 1.90061 8.36127 1.85647 8.25311 1.81597C8.0753 1.74939 7.9399 1.59797 7.90868 1.41068L7.84765 1.0445C7.7472 0.441766 7.22571 0 6.61466 0H6.38535ZM6.5 9C7.88071 9 9 7.88071 9 6.5C9 5.11929 7.88071 4 6.5 4C5.11929 4 4 5.11929 4 6.5C4 7.88071 5.11929 9 6.5 9Z"
    fill="currentColor"
  />
</svg>
