<svg viewBox="0 0 11.2 2.4" fill="none" xmlns="http://www.w3.org/2000/svg">
  <path
    d="M2.4 1.2C2.4 1.86274 1.86274 2.4 1.2 2.4C0.537258 2.4 0 1.86274 0 1.2C0 0.537258 0.537258 0 1.2 0C1.86274 0 2.4 0.537258 2.4 1.2Z"
    fill="currentColor"
  />
  <path
    d="M6.8 1.2C6.8 1.86274 6.26274 2.4 5.6 2.4C4.93726 2.4 4.4 1.86274 4.4 1.2C4.4 0.537258 4.93726 0 5.6 0C6.26274 0 6.8 0.537258 6.8 1.2Z"
    fill="currentColor"
  />
  <path
    d="M11.2 1.2C11.2 1.86274 10.6627 2.4 10 2.4C9.33726 2.4 8.8 1.86274 8.8 1.2C8.8 0.537258 9.33726 0 10 0C10.6627 0 11.2 0.537258 11.2 1.2Z"
    fill="currentColor"
  />
</svg>
