<svg viewBox="0 0 24 24" fill="none" xmlns="http://www.w3.org/2000/svg">
  <path d="M0 6C0 2.68629 2.68629 0 6 0H18C21.3137 0 24 2.68629 24 6V18C24 21.3137 21.3137 24 18 24H6C2.68629 24 0 21.3137 0 18V6Z" fill="#080808"/>
  <path fill-rule="evenodd" clip-rule="evenodd" d="M5.59986 12C5.59986 8.82673 8.55191 6.40001 11.9999 6.40001C15.4478 6.40001 18.3999 8.82673 18.3999 12C18.3999 15.1733 15.4478 17.6 11.9999 17.6C11.5891 17.6 11.1869 17.5662 10.7968 17.5013C10.0093 18.0667 9.04282 18.4 7.99986 18.4C7.88175 18.4 7.76454 18.3957 7.64838 18.3873C7.43896 18.3721 7.25272 18.2486 7.1573 18.0615C7.06189 17.8745 7.07118 17.6512 7.1818 17.4728C7.43567 17.0632 7.58683 16.5836 7.59906 16.0679C6.38265 15.0602 5.59986 13.6195 5.59986 12Z" fill="#ECECEC"/>
</svg>
