<svg viewBox="0 0 13.3 13.3" fill="none" xmlns="http://www.w3.org/2000/svg">
  <path
    d="M12.65 6.65C12.65 7.83669 12.2981 8.99673 11.6388 9.98342C10.9795 10.9701 10.0425 11.7392 8.9461 12.1933C7.84975 12.6474 6.64335 12.7662 5.47946 12.5347C4.31558 12.3032 3.24648 11.7318 2.40736 10.8926C1.56825 10.0535 0.996803 8.98443 0.765291 7.82054C0.53378 6.65666 0.6526 5.45026 1.10673 4.3539C1.56085 3.25754 2.32989 2.32047 3.31658 1.66118C4.30328 1.00189 5.46332 0.65 6.65 0.65C8.33 0.65 9.93667 1.31667 11.1433 2.47667L12.65 3.98333M9.31667 3.98333H12.65V0.65"
    stroke="currentColor"
    stroke-width="1.3"
    stroke-linecap="round"
    stroke-linejoin="round"
  />
</svg>
