<svg viewBox="0 0 11.9967 12.3374" fill="none" xmlns="http://www.w3.org/2000/svg">
  <path
    d="M9.05584 7.3951V11.4778M11.0972 9.43644H7.0145M1.26319 0.650001L4.5546 0.65C4.89326 0.65 5.1678 0.924535 5.1678 1.26319V4.32915C5.1678 4.6678 4.89326 4.94234 4.5546 4.94234L1.26319 4.94234C0.924535 4.94234 0.65 4.6678 0.65 4.32915V1.26319C0.65 0.924536 0.924535 0.650001 1.26319 0.650001ZM1.26319 7.3951C0.924535 7.3951 0.65 7.66964 0.65 8.00829V11.0743C0.65 11.4129 0.924535 11.6874 1.26319 11.6874H4.32915C4.6678 11.6874 4.94234 11.4129 4.94234 11.0743V8.00829C4.94234 7.66964 4.6678 7.3951 4.32915 7.3951H2.79617H1.26319ZM7.44209 0.650001L10.7335 0.650001C11.0722 0.650001 11.3467 0.924536 11.3467 1.26319V4.32915C11.3467 4.6678 11.0722 4.94234 10.7335 4.94234L7.44209 4.94234C7.10343 4.94234 6.8289 4.6678 6.8289 4.32915V1.26319C6.8289 0.924536 7.10343 0.650001 7.44209 0.650001Z"
    stroke="currentColor"
    stroke-width="1.3"
    stroke-linecap="round"
    stroke-linejoin="round"
  />
</svg>
