<svg width="19" height="19" viewBox="0 0 19 19" fill="none" xmlns="http://www.w3.org/2000/svg">
<path d="M9.08301 0C14.0993 0.000175944 18.1668 4.06668 18.167 9.08301C18.1668 14.0993 14.0993 18.1668 9.08301 18.167C4.06668 18.1668 0.000175948 14.0993 0 9.08301C0.000175813 4.06668 4.06668 0.000175809 9.08301 0ZM9.08301 1.5C4.89511 1.50018 1.50018 4.89511 1.5 9.08301C1.50018 13.2709 4.89511 16.6668 9.08301 16.667C13.2709 16.6668 16.6668 13.2709 16.667 9.08301C16.6668 4.89511 13.2709 1.50018 9.08301 1.5ZM9.08301 3.33301C9.49722 3.33301 9.83301 3.66879 9.83301 4.08301V5H12.417C12.8309 5.00035 13.167 5.336 13.167 5.75C13.1668 6.16385 12.8308 6.49965 12.417 6.5H9.83301V8.33301H10.75C11.3908 8.33309 12.0058 8.58788 12.459 9.04102C12.912 9.4942 13.167 10.1092 13.167 10.75C13.1669 11.3908 12.9121 12.0058 12.459 12.459C12.0058 12.9121 11.3908 13.1669 10.75 13.167H9.83301V14.083C9.83301 14.4972 9.49722 14.833 9.08301 14.833C8.66879 14.833 8.33301 14.4972 8.33301 14.083V13.167H5.75C5.336 13.167 5.00035 12.8309 5 12.417C5 12.0028 5.33579 11.667 5.75 11.667H8.33301V9.83301H7.41699C6.77636 9.83301 6.16116 9.57878 5.70801 9.12598C5.25495 8.67292 5.00017 8.0577 5 7.41699C5 6.77605 5.2548 6.16122 5.70801 5.70801C6.16122 5.2548 6.77605 5 7.41699 5H8.33301V4.08301C8.33301 3.66879 8.66879 3.33301 9.08301 3.33301ZM9.83301 11.667H10.75C10.993 11.6669 11.2266 11.5703 11.3984 11.3984C11.5703 11.2266 11.6669 10.993 11.667 10.75C11.667 10.507 11.5701 10.2734 11.3984 10.1016C11.2266 9.92973 10.993 9.83309 10.75 9.83301H9.83301V11.667ZM7.41699 6.5C7.17388 6.5 6.94046 6.59665 6.76855 6.76855C6.59665 6.94046 6.5 7.17388 6.5 7.41699C6.50017 7.65979 6.5969 7.89271 6.76855 8.06445C6.94043 8.23616 7.17403 8.33301 7.41699 8.33301H8.33301V6.5H7.41699Z" fill="#525252"/>
</svg>
