<svg viewBox="0 0 18.3333 14.1667" fill="none" xmlns="http://www.w3.org/2000/svg">
  <path
    fill-rule="evenodd"
    clip-rule="evenodd"
    d="M0 2.27679C0 1.01935 1.02601 0 2.29167 0H16.0417C17.3073 0 18.3333 1.01935 18.3333 2.27679V11.8899C18.3333 13.1473 17.3073 14.1667 16.0417 14.1667H2.29167C1.02601 14.1667 0 13.1473 0 11.8899V2.27679ZM1.52778 8.15662V11.8899C1.52778 12.309 1.86978 12.6488 2.29167 12.6488H16.0417C16.4636 12.6488 16.8056 12.309 16.8056 11.8899V9.16853L14.5448 6.92243C14.2465 6.62605 13.7628 6.62605 13.4645 6.92243L11.5201 8.85417L11.9985 9.32943C12.2968 9.62581 12.2968 10.1063 11.9985 10.4027C11.7002 10.6991 11.2165 10.6991 10.9182 10.4027L5.63274 5.1516C5.33443 4.85522 4.85076 4.85522 4.55244 5.1516L1.52778 8.15662ZM11.2037 4.04762C11.2037 4.60648 10.7477 5.05952 10.1852 5.05952C9.62267 5.05952 9.16667 4.60648 9.16667 4.04762C9.16667 3.48876 9.62267 3.03571 10.1852 3.03571C10.7477 3.03571 11.2037 3.48876 11.2037 4.04762Z"
    fill="currentColor"
  />
</svg>
