<svg width="17" height="16" viewBox="0 0 16.5141 16.25" fill="none" xmlns="http://www.w3.org/2000/svg">
<path d="M13.4036 13.5659C14.9914 13.5721 16.3024 13.8944 16.4896 14.3032C16.5056 14.3383 16.5152 14.3713 16.514 14.4057C16.511 14.8585 15.1154 15.2248 13.3968 15.2163C11.679 15.2101 10.2874 14.8346 10.2884 14.3794C10.2896 13.9241 11.6857 13.5598 13.4036 13.5659ZM13.5423 9.59911C14.4669 9.59916 15.1659 9.88148 15.3304 10.3979C15.5873 11.2179 14.4026 12.3234 12.6839 12.8657C10.9654 13.4106 9.36246 13.1845 9.10284 12.3647C8.86201 11.5961 9.88775 10.5767 11.4329 10.0054L11.7493 9.89403C12.3837 9.69366 13.0004 9.59911 13.5423 9.59911ZM7.06475 5.56102C8.33768 4.20956 10.1976 3.87715 11.2923 4.7788L11.3958 4.87255C11.9026 5.34769 12.1281 6.034 12.0882 6.77001C12.0432 7.59856 11.6617 8.49377 10.9651 9.2329C9.65119 10.628 7.71166 10.9374 6.63409 9.9243C5.55652 8.91125 5.75079 6.95612 7.06475 5.56102ZM3.57745 2.06884C4.20774 2.02453 4.8261 2.17914 5.33428 2.55809C6.63307 3.52317 6.74402 5.57375 5.58428 7.13426C4.422 8.6975 2.42922 9.18093 1.13018 8.21337C-0.168675 7.24824 -0.279754 5.19677 0.88018 3.63622C1.58608 2.68734 2.59851 2.13766 3.57745 2.06884Z" fill="currentColor"/>
</svg>
