<svg width="16" height="16" viewBox="0 0 13.97 13.97" fill="none" xmlns="http://www.w3.org/2000/svg">
  <path
    d="M9.31668 7.98854V4.65521H5.98335M9.31668 4.65521L5.31668 8.65521M4.58335 11.9886C5.85574 12.6413 7.31941 12.8181 8.71061 12.4871C10.1018 12.1561 11.3291 11.3391 12.1712 10.1834C13.0133 9.02759 13.415 7.60905 13.3037 6.18335C13.1925 4.75765 12.5757 3.41855 11.5646 2.40737C10.5534 1.39618 9.21428 0.779408 7.78858 0.668185C6.36288 0.556961 4.94433 0.958605 3.78856 1.80074C2.6328 2.64287 1.81581 3.87011 1.48483 5.26132C1.15385 6.65252 1.33065 8.11619 1.98335 9.38857L0.650018 13.3219L4.58335 11.9886Z"
    stroke="currentColor"
    stroke-width="1.3"
    stroke-linecap="round"
    stroke-linejoin="round"
  />
</svg>
