<svg width="190" height="158" viewBox="0 0 190 158" fill="none" xmlns="http://www.w3.org/2000/svg">
<g clip-path="url(#clip0_865_3505)">
<rect opacity="0.8" width="190" height="158" fill="#080808"/>
<g filter="url(#filter0_d_865_3505)">
<g clip-path="url(#clip1_865_3505)">
<rect width="233" height="20" transform="translate(24.9167 25)" fill="#171717"/>
<rect x="96.9833" y="29.4" width="117.2" height="11.2" rx="5.6" stroke="#1F1F1F" stroke-width="0.8"/>
<rect width="175" height="121" transform="translate(24.9167 45)" fill="#080808"/>
<rect x="29.2167" y="49.3" width="166.4" height="112.4" rx="3.7" fill="#171717"/>
<rect x="29.2167" y="49.3" width="166.4" height="112.4" rx="3.7" stroke="#1F1F1F" stroke-width="0.6"/>
<g opacity="0.24">
<rect x="35.9167" y="56" width="12" height="12" rx="2" fill="#6A6A6A"/>
</g>
<g opacity="0.24">
<rect x="51.9167" y="60" width="26" height="4" rx="2" fill="#6A6A6A"/>
</g>
<rect x="35.9167" y="134" width="54" height="12" rx="3" fill="#ECECEC"/>
<path d="M95.9167 137C95.9167 135.343 97.2599 134 98.9167 134H146.917C148.574 134 149.917 135.343 149.917 137V143C149.917 144.657 148.574 146 146.917 146H98.9167C97.2599 146 95.9167 144.657 95.9167 143V137Z" fill="#6A6A6A"/>
<path d="M38.5588 91H36.3088L40.4054 79.3636H43.0077L47.1099 91H44.8599L41.752 81.75H41.6611L38.5588 91ZM38.6327 86.4375H44.769V88.1307H38.6327V86.4375ZM51.0631 91.1761C50.51 91.1761 50.0119 91.0777 49.5687 90.8807C49.1293 90.6799 48.7809 90.3845 48.5233 89.9943C48.2695 89.6042 48.1426 89.1231 48.1426 88.5511C48.1426 88.0587 48.2335 87.6515 48.4153 87.3295C48.5971 87.0076 48.8453 86.75 49.1596 86.5568C49.474 86.3636 49.8282 86.2178 50.2221 86.1193C50.6199 86.017 51.0309 85.9432 51.4551 85.8977C51.9665 85.8447 52.3812 85.7973 52.6994 85.7557C53.0176 85.7102 53.2487 85.642 53.3926 85.5511C53.5403 85.4564 53.6142 85.3106 53.6142 85.1136V85.0795C53.6142 84.6515 53.4873 84.3201 53.2335 84.0852C52.9797 83.8504 52.6142 83.733 52.1369 83.733C51.6331 83.733 51.2335 83.8428 50.9381 84.0625C50.6464 84.2822 50.4494 84.5417 50.3471 84.8409L48.4267 84.5682C48.5782 84.0379 48.8282 83.5947 49.1767 83.2386C49.5252 82.8788 49.9513 82.6098 50.4551 82.4318C50.9589 82.25 51.5157 82.1591 52.1256 82.1591C52.546 82.1591 52.9646 82.2083 53.3812 82.3068C53.7979 82.4053 54.1786 82.5682 54.5233 82.7955C54.868 83.0189 55.1445 83.3239 55.3528 83.7102C55.5649 84.0966 55.671 84.5795 55.671 85.1591V91H53.6937V89.8011H53.6256C53.5006 90.0436 53.3244 90.2708 53.0971 90.483C52.8737 90.6913 52.5915 90.8598 52.2506 90.9886C51.9134 91.1136 51.5176 91.1761 51.0631 91.1761ZM51.5971 89.6648C52.01 89.6648 52.368 89.5833 52.671 89.4205C52.974 89.2538 53.207 89.0341 53.3699 88.7614C53.5365 88.4886 53.6199 88.1913 53.6199 87.8693V86.8409C53.5555 86.8939 53.4456 86.9432 53.2903 86.9886C53.1388 87.0341 52.9684 87.0739 52.779 87.108C52.5896 87.142 52.4021 87.1723 52.2165 87.1989C52.0309 87.2254 51.8699 87.2481 51.7335 87.267C51.4267 87.3087 51.1521 87.3769 50.9096 87.4716C50.6672 87.5663 50.4759 87.6989 50.3358 87.8693C50.1956 88.036 50.1256 88.2519 50.1256 88.517C50.1256 88.8958 50.2638 89.1818 50.5403 89.375C50.8168 89.5682 51.1691 89.6648 51.5971 89.6648Z" fill="#ECECEC"/>
<g opacity="0.24">
<rect x="35.9167" y="100" width="140" height="5" rx="2.5" fill="#6A6A6A"/>
</g>
<g opacity="0.24">
<rect x="35.9167" y="110" width="96" height="5" rx="2.5" fill="#6A6A6A"/>
</g>
<g opacity="0.24">
<rect x="35.9167" y="120" width="64" height="5" rx="2.5" fill="#6A6A6A"/>
</g>
</g>
<rect x="25.4167" y="24.5" width="174" height="141" rx="5.5" stroke="#525252" shape-rendering="crispEdges"/>
</g>
</g>
<defs>
<filter id="filter0_d_865_3505" x="10.9167" y="14" width="199" height="166" filterUnits="userSpaceOnUse" color-interpolation-filters="sRGB">
<feFlood flood-opacity="0" result="BackgroundImageFix"/>
<feColorMatrix in="SourceAlpha" type="matrix" values="0 0 0 0 0 0 0 0 0 0 0 0 0 0 0 0 0 0 127 0" result="hardAlpha"/>
<feOffset dx="-2" dy="2"/>
<feGaussianBlur stdDeviation="6"/>
<feComposite in2="hardAlpha" operator="out"/>
<feColorMatrix type="matrix" values="0 0 0 0 1 0 0 0 0 1 0 0 0 0 1 0 0 0 0.04 0"/>
<feBlend mode="normal" in2="BackgroundImageFix" result="effect1_dropShadow_865_3505"/>
<feBlend mode="normal" in="SourceGraphic" in2="effect1_dropShadow_865_3505" result="shape"/>
</filter>
<clipPath id="clip0_865_3505">
<rect width="190" height="158" fill="white"/>
</clipPath>
<clipPath id="clip1_865_3505">
<rect x="24.9167" y="24" width="175" height="142" rx="6" fill="white"/>
</clipPath>
</defs>
</svg>
