<svg width="190" height="158" viewBox="0 0 190 158" fill="none" xmlns="http://www.w3.org/2000/svg">
<g clip-path="url(#clip0_865_3461)">
<rect width="94" height="158" fill="white"/>
<path opacity="0.8" d="M94 0H190V158H94V0Z" fill="#080808"/>
<g filter="url(#filter0_d_865_3461)">
<g clip-path="url(#clip1_865_3461)">
<rect width="233" height="20" transform="translate(25.25 25)" fill="white"/>
<rect width="175" height="121" transform="translate(25.25 45)" fill="#F1F1F1"/>
<rect x="29.55" y="49.3" width="166.4" height="112.4" rx="3.7" fill="white"/>
<rect x="29.55" y="49.3" width="166.4" height="112.4" rx="3.7" stroke="#ECECEC" stroke-width="0.6"/>
<g opacity="0.24">
<rect x="36.25" y="56" width="12" height="12" rx="2" fill="#828282"/>
</g>
<g opacity="0.24">
<rect x="52.25" y="60" width="26" height="4" rx="2" fill="#828282"/>
</g>
<rect x="36.25" y="134" width="55" height="12" rx="3" fill="#080808"/>
<path d="M38.892 91H36.642L40.7386 79.3636H43.3409L47.4432 91H45.1932L42.0852 81.75H41.9943L38.892 91ZM38.9659 86.4375H45.1023V88.1307H38.9659V86.4375ZM51.3963 91.1761C50.8433 91.1761 50.3452 91.0777 49.902 90.8807C49.4626 90.6799 49.1141 90.3845 48.8565 89.9943C48.6027 89.6042 48.4759 89.1231 48.4759 88.5511C48.4759 88.0587 48.5668 87.6515 48.7486 87.3295C48.9304 87.0076 49.1785 86.75 49.4929 86.5568C49.8073 86.3636 50.1615 86.2178 50.5554 86.1193C50.9531 86.017 51.3641 85.9432 51.7884 85.8977C52.2997 85.8447 52.7145 85.7973 53.0327 85.7557C53.3509 85.7102 53.5819 85.642 53.7259 85.5511C53.8736 85.4564 53.9474 85.3106 53.9474 85.1136V85.0795C53.9474 84.6515 53.8205 84.3201 53.5668 84.0852C53.313 83.8504 52.9474 83.733 52.4702 83.733C51.9664 83.733 51.5668 83.8428 51.2713 84.0625C50.9796 84.2822 50.7827 84.5417 50.6804 84.8409L48.7599 84.5682C48.9115 84.0379 49.1615 83.5947 49.5099 83.2386C49.8584 82.8788 50.2846 82.6098 50.7884 82.4318C51.2921 82.25 51.849 82.1591 52.4588 82.1591C52.8793 82.1591 53.2978 82.2083 53.7145 82.3068C54.1312 82.4053 54.5118 82.5682 54.8565 82.7955C55.2012 83.0189 55.4777 83.3239 55.6861 83.7102C55.8982 84.0966 56.0043 84.5795 56.0043 85.1591V91H54.027V89.8011H53.9588C53.8338 90.0436 53.6577 90.2708 53.4304 90.483C53.2069 90.6913 52.9247 90.8598 52.5838 90.9886C52.2467 91.1136 51.8509 91.1761 51.3963 91.1761ZM51.9304 89.6648C52.3433 89.6648 52.7012 89.5833 53.0043 89.4205C53.3073 89.2538 53.5402 89.0341 53.7031 88.7614C53.8698 88.4886 53.9531 88.1913 53.9531 87.8693V86.8409C53.8887 86.8939 53.7789 86.9432 53.6236 86.9886C53.4721 87.0341 53.3016 87.0739 53.1122 87.108C52.9228 87.142 52.7353 87.1723 52.5497 87.1989C52.3641 87.2254 52.2031 87.2481 52.0668 87.267C51.7599 87.3087 51.4853 87.3769 51.2429 87.4716C51.0005 87.5663 50.8092 87.6989 50.669 87.8693C50.5289 88.036 50.4588 88.2519 50.4588 88.517C50.4588 88.8958 50.5971 89.1818 50.8736 89.375C51.1501 89.5682 51.5024 89.6648 51.9304 89.6648Z" fill="#080808"/>
<g opacity="0.24">
<rect x="36.25" y="100" width="140" height="5" rx="2.5" fill="#828282"/>
</g>
<g opacity="0.24">
<rect x="36.25" y="110" width="96" height="5" rx="2.5" fill="#828282"/>
</g>
<g opacity="0.24">
<rect x="36.25" y="120" width="64" height="5" rx="2.5" fill="#828282"/>
</g>
</g>
<rect x="25.75" y="24.5" width="174" height="141" rx="5.5" stroke="#E0E0E0" shape-rendering="crispEdges"/>
</g>
<g filter="url(#filter1_d_865_3461)">
<rect x="94.5" y="24.5" width="105" height="141" stroke="#525252" shape-rendering="crispEdges"/>
<rect width="233" height="20" transform="translate(94 25)" fill="#171717"/>
<rect x="96.4" y="29.4" width="117.2" height="11.2" rx="5.6" stroke="#1F1F1F" stroke-width="0.8"/>
<rect width="175" height="121" transform="translate(94 45)" fill="#080808"/>
<g clip-path="url(#clip2_865_3461)">
<rect x="94" y="49" width="167" height="113" fill="#171717"/>
<path d="M97 137C97 135.343 98.3431 134 100 134H148C149.657 134 151 135.343 151 137V143C151 144.657 149.657 146 148 146H100C98.3431 146 97 144.657 97 143V137Z" fill="#6A6A6A"/>
<g opacity="0.24">
<rect x="36" y="100" width="140" height="5" rx="2.5" fill="#6A6A6A"/>
</g>
<g opacity="0.24">
<rect x="36" y="110" width="96" height="5" rx="2.5" fill="#6A6A6A"/>
</g>
<g opacity="0.24">
<rect x="36" y="120" width="64" height="5" rx="2.5" fill="#6A6A6A"/>
</g>
</g>
<rect x="94.3" y="49.3" width="166.4" height="112.4" stroke="#1F1F1F" stroke-width="0.6"/>
</g>
</g>
<defs>
<filter id="filter0_d_865_3461" x="11.25" y="14" width="199" height="166" filterUnits="userSpaceOnUse" color-interpolation-filters="sRGB">
<feFlood flood-opacity="0" result="BackgroundImageFix"/>
<feColorMatrix in="SourceAlpha" type="matrix" values="0 0 0 0 0 0 0 0 0 0 0 0 0 0 0 0 0 0 127 0" result="hardAlpha"/>
<feOffset dx="-2" dy="2"/>
<feGaussianBlur stdDeviation="6"/>
<feComposite in2="hardAlpha" operator="out"/>
<feColorMatrix type="matrix" values="0 0 0 0 0 0 0 0 0 0 0 0 0 0 0 0 0 0 0.08 0"/>
<feBlend mode="normal" in2="BackgroundImageFix" result="effect1_dropShadow_865_3461"/>
<feBlend mode="normal" in="SourceGraphic" in2="effect1_dropShadow_865_3461" result="shape"/>
</filter>
<filter id="filter1_d_865_3461" x="80" y="14" width="257" height="166" filterUnits="userSpaceOnUse" color-interpolation-filters="sRGB">
<feFlood flood-opacity="0" result="BackgroundImageFix"/>
<feColorMatrix in="SourceAlpha" type="matrix" values="0 0 0 0 0 0 0 0 0 0 0 0 0 0 0 0 0 0 127 0" result="hardAlpha"/>
<feOffset dx="-2" dy="2"/>
<feGaussianBlur stdDeviation="6"/>
<feComposite in2="hardAlpha" operator="out"/>
<feColorMatrix type="matrix" values="0 0 0 0 1 0 0 0 0 1 0 0 0 0 1 0 0 0 0.04 0"/>
<feBlend mode="normal" in2="BackgroundImageFix" result="effect1_dropShadow_865_3461"/>
<feBlend mode="normal" in="SourceGraphic" in2="effect1_dropShadow_865_3461" result="shape"/>
</filter>
<clipPath id="clip0_865_3461">
<rect width="190" height="158" fill="white"/>
</clipPath>
<clipPath id="clip1_865_3461">
<rect x="25.25" y="24" width="175" height="142" rx="6" fill="white"/>
</clipPath>
<clipPath id="clip2_865_3461">
<rect x="94" y="49" width="167" height="113" fill="white"/>
</clipPath>
</defs>
</svg>
