<svg width="190" height="158" viewBox="0 0 190 158" fill="none" xmlns="http://www.w3.org/2000/svg">
<g clip-path="url(#clip0_865_3488)">
<rect opacity="0.8" width="190" height="158" fill="white"/>
<g filter="url(#filter0_d_865_3488)">
<g clip-path="url(#clip1_865_3488)">
<rect width="233" height="20" transform="translate(24.9167 25)" fill="white"/>
<rect x="96.3167" y="29.4" width="117.2" height="11.2" rx="5.6" stroke="#ECECEC" stroke-width="0.8"/>
<rect width="175" height="121" transform="translate(24.9167 45)" fill="#F1F1F1"/>
<rect x="29.2167" y="49.3" width="166.4" height="112.4" rx="3.7" fill="white"/>
<rect x="29.2167" y="49.3" width="166.4" height="112.4" rx="3.7" stroke="#ECECEC" stroke-width="0.6"/>
<g opacity="0.24">
<rect x="35.9167" y="56" width="12" height="12" rx="2" fill="#828282"/>
</g>
<g opacity="0.24">
<rect x="51.9167" y="60" width="26" height="4" rx="2" fill="#828282"/>
</g>
<rect x="35.9167" y="134" width="54" height="12" rx="3" fill="#080808"/>
<path d="M95.9167 137C95.9167 135.343 97.2598 134 98.9167 134H146.917C148.574 134 149.917 135.343 149.917 137V143C149.917 144.657 148.574 146 146.917 146H98.9167C97.2598 146 95.9167 144.657 95.9167 143V137Z" fill="#828282"/>
<path d="M38.5587 91H36.3087L40.4053 79.3636H43.0076L47.1099 91H44.8599L41.7519 81.75H41.661L38.5587 91ZM38.6326 86.4375H44.769V88.1307H38.6326V86.4375ZM51.063 91.1761C50.51 91.1761 50.0119 91.0777 49.5687 90.8807C49.1293 90.6799 48.7808 90.3845 48.5232 89.9943C48.2694 89.6042 48.1425 89.1231 48.1425 88.5511C48.1425 88.0587 48.2334 87.6515 48.4153 87.3295C48.5971 87.0076 48.8452 86.75 49.1596 86.5568C49.474 86.3636 49.8281 86.2178 50.2221 86.1193C50.6198 86.017 51.0308 85.9432 51.455 85.8977C51.9664 85.8447 52.3812 85.7973 52.6994 85.7557C53.0175 85.7102 53.2486 85.642 53.3925 85.5511C53.5403 85.4564 53.6141 85.3106 53.6141 85.1136V85.0795C53.6141 84.6515 53.4872 84.3201 53.2334 84.0852C52.9797 83.8504 52.6141 83.733 52.1369 83.733C51.6331 83.733 51.2334 83.8428 50.938 84.0625C50.6463 84.2822 50.4494 84.5417 50.3471 84.8409L48.4266 84.5682C48.5781 84.0379 48.8281 83.5947 49.1766 83.2386C49.5251 82.8788 49.9513 82.6098 50.455 82.4318C50.9588 82.25 51.5156 82.1591 52.1255 82.1591C52.5459 82.1591 52.9645 82.2083 53.3812 82.3068C53.7978 82.4053 54.1785 82.5682 54.5232 82.7955C54.8679 83.0189 55.1444 83.3239 55.3528 83.7102C55.5649 84.0966 55.6709 84.5795 55.6709 85.1591V91H53.6937V89.8011H53.6255C53.5005 90.0436 53.3244 90.2708 53.0971 90.483C52.8736 90.6913 52.5914 90.8598 52.2505 90.9886C51.9134 91.1136 51.5175 91.1761 51.063 91.1761ZM51.5971 89.6648C52.01 89.6648 52.3679 89.5833 52.6709 89.4205C52.974 89.2538 53.2069 89.0341 53.3698 88.7614C53.5365 88.4886 53.6198 88.1913 53.6198 87.8693V86.8409C53.5554 86.8939 53.4456 86.9432 53.2903 86.9886C53.1388 87.0341 52.9683 87.0739 52.7789 87.108C52.5895 87.142 52.402 87.1723 52.2164 87.1989C52.0308 87.2254 51.8698 87.2481 51.7334 87.267C51.4266 87.3087 51.152 87.3769 50.9096 87.4716C50.6672 87.5663 50.4759 87.6989 50.3357 87.8693C50.1956 88.036 50.1255 88.2519 50.1255 88.517C50.1255 88.8958 50.2638 89.1818 50.5403 89.375C50.8168 89.5682 51.1691 89.6648 51.5971 89.6648Z" fill="#080808"/>
<g opacity="0.24">
<rect x="35.9167" y="100" width="140" height="5" rx="2.5" fill="#828282"/>
</g>
<g opacity="0.24">
<rect x="35.9167" y="110" width="96" height="5" rx="2.5" fill="#828282"/>
</g>
<g opacity="0.24">
<rect x="35.9167" y="120" width="64" height="5" rx="2.5" fill="#828282"/>
</g>
</g>
<rect x="25.4167" y="24.5" width="174" height="141" rx="5.5" stroke="#E0E0E0" shape-rendering="crispEdges"/>
</g>
</g>
<defs>
<filter id="filter0_d_865_3488" x="10.9167" y="14" width="199" height="166" filterUnits="userSpaceOnUse" color-interpolation-filters="sRGB">
<feFlood flood-opacity="0" result="BackgroundImageFix"/>
<feColorMatrix in="SourceAlpha" type="matrix" values="0 0 0 0 0 0 0 0 0 0 0 0 0 0 0 0 0 0 127 0" result="hardAlpha"/>
<feOffset dx="-2" dy="2"/>
<feGaussianBlur stdDeviation="6"/>
<feComposite in2="hardAlpha" operator="out"/>
<feColorMatrix type="matrix" values="0 0 0 0 0 0 0 0 0 0 0 0 0 0 0 0 0 0 0.08 0"/>
<feBlend mode="normal" in2="BackgroundImageFix" result="effect1_dropShadow_865_3488"/>
<feBlend mode="normal" in="SourceGraphic" in2="effect1_dropShadow_865_3488" result="shape"/>
</filter>
<clipPath id="clip0_865_3488">
<rect width="190" height="158" fill="white"/>
</clipPath>
<clipPath id="clip1_865_3488">
<rect x="24.9167" y="24" width="175" height="142" rx="6" fill="white"/>
</clipPath>
</defs>
</svg>
